ffmpeg version N-82167-g5e96558 Copyright (c) 2000-2016 the FFmpeg developers
  built with gcc 5.4.0 (Ubuntu 5.4.0-6ubuntu1~16.04.2) 20160609
  configuration: --prefix=/root/ffmpeg_build --pkg-config-flags=--static --extra-cflags=-I/root/ffmpeg_build/include --extra-ldflags=-L/root/ffmpeg_build/lib --bindir=/root/bin --enable-gpl --enable-libass --enable-libfdk-aac --enable-libfreetype --enable-libmp3lame --enable-libopus --enable-libtheora --enable-libvorbis --enable-libx264 --enable-libx265 --enable-nonfree
  libavutil      55. 35.100 / 55. 35.100
  libavcodec     57. 65.100 / 57. 65.100
  libavformat    57. 57.100 / 57. 57.100
  libavdevice    57.  2.100 / 57.  2.100
  libavfilter     6. 66.100 /  6. 66.100
  libswscale      4.  3.100 /  4.  3.100
  libswresample   2.  4.100 /  2.  4.100
  libpostproc    54.  2.100 / 54.  2.100
Input #0, matroska,webm, from '/media/yubikiri/bot/queue/3AnimePahe_Detective_Conan_-_031_720p_Fansub.mkv':
  Metadata:
    title           : 3|Text||0|0
    ENCODER         : Lavf57.57.100
  Duration: 00:24:27.72, start: 0.000000, bitrate: 964 kb/s
    Stream #0:0: Video: mpeg4 (Simple Profile), yuv420p, 640x480 [SAR 1:1 DAR 4:3], 23.98 fps, 23.98 tbr, 1k tbn, 23.98 tbc (default)
    Metadata:
      DURATION        : 00:24:27.718000000
    Stream #0:1: Audio: mp3, 48000 Hz, stereo, s16p, 128 kb/s (default)
    Metadata:
      DURATION        : 00:24:27.672000000
[libx264 @ 0x4275d80] using SAR=1/1
[libx264 @ 0x4275d80] using cpu capabilities: MMX2 SSE2Fast SSSE3 SSE4.2 AVX FMA3 AVX2 LZCNT BMI2
[libx264 @ 0x4275d80] profile High, level 3.1
[libx264 @ 0x4275d80] 264 - core 148 r2643 5c65704 - H.264/MPEG-4 AVC codec - Copyleft 2003-2015 - http://www.videolan.org/x264.html - options: cabac=1 ref=8 deblock=1:1:1 analyse=0x3:0x133 me=umh subme=7 psy=1 psy_rd=0.00:0.00 mixed_ref=1 me_range=8 chroma_me=1 trellis=0 8x8dct=1 cqm=0 deadzone=21,11 fast_pskip=1 chroma_qp_offset=0 threads=8 lookahead_threads=2 sliced_threads=0 nr=0 decimate=1 interlaced=0 bluray_compat=0 constrained_intra=0 bframes=3 b_pyramid=2 b_adapt=2 b_bias=0 direct=1 weightb=1 open_gop=0 weightp=2 keyint=240 keyint_min=24 scenecut=40 intra_refresh=0 rc_lookahead=60 rc=crf mbtree=1 crf=27.0 qcomp=0.60 qpmin=0 qpmax=69 qpstep=4 ip_ratio=1.40 aq=1:1.00
[libfdk_aac @ 0x41fd940] Note, the VBR setting is unsupported and only works with some parameter combinations
Output #0, mp4, to '/media/yubikiri/bot/queue/3AnimePahe_Detective_Conan_-_031_720p_Fansub.mkv_encoded.mp4':
  Metadata:
    encoder         : Lavf57.57.100
    Stream #0:0: Video: h264 (libx264) ([33][0][0][0] / 0x0021), yuv420p, 640x480 [SAR 1:1 DAR 4:3], q=-1--1, 23.98 fps, 11988 tbn, 23.98 tbc (default)
    Metadata:
      encoder         : Lavc57.65.100 libx264
    Side data:
      cpb: bitrate max/min/avg: 0/0/0 buffer size: 0 vbv_delay: -1
    Stream #0:1: Audio: aac (libfdk_aac) (HE-AACv2) ([64][0][0][0] / 0x0040), 48000 Hz, stereo, s16, 48 kb/s (default)
    Metadata:
      encoder         : Lavc57.65.100 libfdk_aac
Stream mapping:
  Stream #0:0 -> #0:0 (mpeg4 (native) -> h264 (libx264))
  Stream #0:1 -> #0:1 (mp3 (native) -> aac (libfdk_aac))
Press [q] to stop, [?] for help
frame=  109 fps=0.0 q=32.0 size=     110kB time=00:00:04.71 bitrate= 191.2kbits/s dup=1 drop=0 speed=9.42x    frame=  202 fps=202 q=32.0 size=     313kB time=00:00:08.59 bitrate= 298.3kbits/s dup=1 drop=0 speed=8.59x    frame=  287 fps=191 q=32.0 size=     454kB time=00:00:12.13 bitrate= 306.2kbits/s dup=1 drop=0 speed=8.06x    frame=  353 fps=176 q=32.0 size=     603kB time=00:00:14.87 bitrate= 332.0kbits/s dup=1 drop=0 speed=7.41x    frame=  448 fps=177 q=32.0 size=     783kB time=00:00:18.83 bitrate= 340.6kbits/s dup=1 drop=0 speed=7.46x    frame=  517 fps=171 q=32.0 size=     949kB time=00:00:21.73 bitrate= 357.7kbits/s dup=1 drop=0 speed=7.19x    frame=  630 fps=179 q=32.0 size=    1118kB time=00:00:26.43 bitrate= 346.5kbits/s dup=1 drop=0 speed= 7.5x    frame=  732 fps=182 q=32.0 size=    1289kB time=00:00:30.69 bitrate= 343.9kbits/s dup=1 drop=0 speed=7.62x    frame=  826 fps=182 q=32.0 size=    1498kB time=00:00:34.62 bitrate= 354.5kbits/s dup=1 drop=0 speed=7.64x    frame=  900 fps=170 q=32.0 size=    1642kB time=00:00:37.69 bitrate= 356.9kbits/s dup=1 drop=0 speed=7.14x    frame=  935 fps=161 q=32.0 size=    1716kB time=00:00:39.14 bitrate= 359.1kbits/s dup=1 drop=0 speed=6.76x    frame= 1009 fps=159 q=32.0 size=    1860kB time=00:00:42.21 bitrate= 360.9kbits/s dup=1 drop=0 speed=6.67x    frame= 1126 fps=165 q=32.0 size=    2064kB time=00:00:47.12 bitrate= 358.8kbits/s dup=1 drop=0 speed=6.89x    frame= 1233 fps=168 q=32.0 size=    2237kB time=00:00:51.56 bitrate= 355.4kbits/s dup=1 drop=0 speed=7.02x    frame= 1287 fps=164 q=32.0 size=    2395kB time=00:00:53.82 bitrate= 364.5kbits/s dup=1 drop=0 speed=6.85x    frame= 1348 fps=161 q=32.0 size=    2584kB time=00:00:56.38 bitrate= 375.4kbits/s dup=1 drop=0 speed=6.75x    frame= 1420 fps=160 q=32.0 size=    2775kB time=00:00:59.37 bitrate= 382.9kbits/s dup=1 drop=0 speed= 6.7x    frame= 1491 fps=159 q=32.0 size=    2936kB time=00:01:02.35 bitrate= 385.7kbits/s dup=1 drop=0 speed=6.63x    frame= 1582 fps=159 q=32.0 size=    3087kB time=00:01:06.15 bitrate= 382.3kbits/s dup=1 drop=0 speed=6.67x    frame= 1653 fps=158 q=32.0 size=    3293kB time=00:01:09.09 bitrate= 390.5kbits/s dup=1 drop=0 speed=6.62x    frame= 1735 fps=159 q=32.0 size=    3509kB time=00:01:12.51 bitrate= 396.5kbits/s dup=1 drop=0 speed=6.63x    frame= 1790 fps=156 q=32.0 size=    3727kB time=00:01:14.81 bitrate= 408.1kbits/s dup=1 drop=0 speed=6.53x    frame= 1853 fps=155 q=32.0 size=    3883kB time=00:01:17.46 bitrate= 410.6kbits/s dup=1 drop=0 speed=6.48x    frame= 1913 fps=153 q=32.0 size=    4071kB time=00:01:19.93 bitrate= 417.2kbits/s dup=1 drop=0 speed=6.41x    frame= 1971 fps=152 q=32.0 size=    4224kB time=00:01:22.36 bitrate= 420.1kbits/s dup=1 drop=0 speed=6.35x    frame= 2029 fps=150 q=32.0 size=    4391kB time=00:01:24.80 bitrate= 424.2kbits/s dup=1 drop=0 speed=6.28x    frame= 2106 fps=150 q=32.0 size=    4528kB time=00:01:28.00 bitrate= 421.5kbits/s dup=1 drop=0 speed=6.28x    frame= 2160 fps=149 q=32.0 size=    4625kB time=00:01:30.21 bitrate= 419.9kbits/s dup=1 drop=0 speed=6.21x    frame= 2327 fps=155 q=32.0 size=    4756kB time=00:01:37.21 bitrate= 400.7kbits/s dup=1 drop=0 speed=6.47x    frame= 2429 fps=157 q=32.0 size=    4877kB time=00:01:41.48 bitrate= 393.7kbits/s dup=1 drop=0 speed=6.54x    frame= 2504 fps=156 q=32.0 size=    5033kB time=00:01:44.59 bitrate= 394.2kbits/s dup=1 drop=0 speed=6.53x    frame= 2592 fps=157 q=32.0 size=    5182kB time=00:01:48.26 bitrate= 392.1kbits/s dup=1 drop=0 speed=6.55x    frame= 2670 fps=157 q=32.0 size=    5330kB time=00:01:51.51 bitrate= 391.6kbits/s dup=1 drop=0 speed=6.55x    frame= 2740 fps=156 q=32.0 size=    5466kB time=00:01:54.41 bitrate= 391.4kbits/s dup=1 drop=0 speed=6.52x    frame= 2816 fps=156 q=32.0 size=    5559kB time=00:01:57.61 bitrate= 387.2kbits/s dup=1 drop=0 speed=6.51x    frame= 2896 fps=156 q=32.0 size=    5635kB time=00:02:00.93 bitrate= 381.7kbits/s dup=1 drop=0 speed=6.51x    frame= 2970 fps=155 q=32.0 size=    5711kB time=00:02:04.01 bitrate= 377.3kbits/s dup=1 drop=0 speed=6.47x    frame= 3070 fps=156 q=32.0 size=    5793kB time=00:02:08.19 bitrate= 370.2kbits/s dup=1 drop=0 speed=6.52x    frame= 3146 fps=156 q=32.0 size=    5890kB time=00:02:11.39 bitrate= 367.2kbits/s dup=1 drop=0 speed=6.51x    frame= 3241 fps=157 q=32.0 size=    5987kB time=00:02:15.31 bitrate= 362.5kbits/s dup=1 drop=0 speed=6.55x    frame= 3331 fps=157 q=32.0 size=    6081kB time=00:02:19.07 bitrate= 358.2kbits/s dup=1 drop=0 speed=6.57x    frame= 3401 fps=157 q=32.0 size=    6190kB time=00:02:22.01 bitrate= 357.0kbits/s dup=1 drop=0 speed=6.55x    frame= 3470 fps=156 q=32.0 size=    6285kB time=00:02:24.87 bitrate= 355.4kbits/s dup=1 drop=0 speed=6.53x    frame= 3540 fps=155 q=32.0 size=    6358kB time=00:02:27.81 bitrate= 352.4kbits/s dup=1 drop=0 speed=6.49x    frame= 3610 fps=155 q=32.0 size=    6473kB time=00:02:30.72 bitrate= 351.8kbits/s dup=1 drop=0 speed=6.48x    frame= 3718 fps=156 q=32.0 size=    6544kB time=00:02:35.24 bitrate= 345.3kbits/s dup=1 drop=0 speed=6.53x    frame= 3781 fps=156 q=32.0 size=    6650kB time=00:02:37.84 bitrate= 345.1kbits/s dup=1 drop=0 speed= 6.5x    frame= 3841 fps=155 q=32.0 size=    6765kB time=00:02:40.36 bitrate= 345.6kbits/s dup=1 drop=0 speed=6.47x    frame= 3915 fps=155 q=32.0 size=    6865kB time=00:02:43.43 bitrate= 344.1kbits/s dup=1 drop=0 speed=6.46x    frame= 3996 fps=155 q=32.0 size=    6942kB time=00:02:46.80 bitrate= 340.9kbits/s dup=1 drop=0 speed=6.46x    frame= 4079 fps=155 q=32.0 size=    7045kB time=00:02:50.26 bitrate= 339.0kbits/s dup=1 drop=0 speed=6.47x    frame= 4154 fps=155 q=32.0 size=    7175kB time=00:02:53.41 bitrate= 338.9kbits/s dup=1 drop=0 speed=6.47x    frame= 4222 fps=155 q=32.0 size=    7261kB time=00:02:56.23 bitrate= 337.5kbits/s dup=1 drop=0 speed=6.45x    frame= 4306 fps=155 q=32.0 size=    7330kB time=00:02:59.77 bitrate= 334.0kbits/s dup=1 drop=0 speed=6.46x    frame= 4365 fps=154 q=32.0 size=    7428kB time=00:03:02.20 bitrate= 334.0kbits/s dup=1 drop=0 speed=6.43x    frame= 4446 fps=154 q=32.0 size=    7524kB time=00:03:05.57 bitrate= 332.1kbits/s dup=1 drop=0 speed=6.44x    frame= 4537 fps=155 q=32.0 size=    7639kB time=00:03:09.37 bitrate= 330.5kbits/s dup=1 drop=0 speed=6.46x    frame= 4628 fps=155 q=32.0 size=    7745kB time=00:03:13.17 bitrate= 328.4kbits/s dup=1 drop=0 speed=6.47x    frame= 4727 fps=156 q=32.0 size=    7826kB time=00:03:17.31 bitrate= 324.9kbits/s dup=1 drop=0 speed= 6.5x    frame= 4810 fps=156 q=32.0 size=    7895kB time=00:03:20.76 bitrate= 322.2kbits/s dup=1 drop=0 speed=6.51x    frame= 4842 fps=154 q=32.0 size=    8061kB time=00:03:22.09 bitrate= 326.8kbits/s dup=1 drop=0 speed=6.44x    frame= 4913 fps=154 q=32.0 size=    8215kB time=00:03:25.07 bitrate= 328.2kbits/s dup=1 drop=0 speed=6.43x    frame= 5010 fps=155 q=32.0 size=    8318kB time=00:03:29.13 bitrate= 325.8kbits/s dup=1 drop=0 speed=6.46x    frame= 5083 fps=155 q=32.0 size=    8471kB time=00:03:32.16 bitrate= 327.1kbits/s dup=1 drop=0 speed=6.45x    frame= 5154 fps=154 q=32.0 size=    8604kB time=00:03:35.14 bitrate= 327.6kbits/s dup=1 drop=0 speed=6.44x    frame= 5235 fps=154 q=32.0 size=    8700kB time=00:03:38.47 bitrate= 326.2kbits/s dup=1 drop=0 speed=6.44x    frame= 5322 fps=155 q=32.0 size=    8775kB time=00:03:42.14 bitrate= 323.6kbits/s dup=1 drop=0 speed=6.46x    frame= 5396 fps=155 q=32.0 size=    8848kB time=00:03:45.25 bitrate= 321.8kbits/s dup=1 drop=0 speed=6.45x    frame= 5457 fps=154 q=32.0 size=    8947kB time=00:03:47.77 bitrate= 321.8kbits/s dup=1 drop=0 speed=6.43x    frame= 5514 fps=154 q=32.0 size=    9042kB time=00:03:50.12 bitrate= 321.9kbits/s dup=1 drop=0 speed=6.41x    frame= 5619 fps=154 q=32.0 size=    9140kB time=00:03:54.51 bitrate= 319.3kbits/s dup=1 drop=0 speed=6.44x    frame= 5697 fps=154 q=32.0 size=    9252kB time=00:03:57.76 bitrate= 318.8kbits/s dup=1 drop=0 speed=6.44x    frame= 5791 fps=155 q=32.0 size=    9363kB time=00:04:01.68 bitrate= 317.4kbits/s dup=1 drop=0 speed=6.46x    frame= 5893 fps=155 q=32.0 size=    9440kB time=00:04:05.95 bitrate= 314.4kbits/s dup=1 drop=0 speed=6.48x    frame= 5989 fps=156 q=32.0 size=    9548kB time=00:04:09.96 bitrate= 312.9kbits/s dup=1 drop=0 speed= 6.5x    frame= 6088 fps=156 q=32.0 size=    9624kB time=00:04:14.10 bitrate= 310.3kbits/s dup=1 drop=0 speed=6.52x    frame= 6151 fps=156 q=32.0 size=    9702kB time=00:04:16.70 bitrate= 309.6kbits/s dup=1 drop=0 speed=6.51x    frame= 6196 fps=155 q=32.0 size=    9778kB time=00:04:18.58 bitrate= 309.8kbits/s dup=1 drop=0 speed=6.47x    frame= 6242 fps=154 q=32.0 size=    9879kB time=00:04:20.50 bitrate= 310.7kbits/s dup=1 drop=0 speed=6.44x    frame= 6289 fps=154 q=32.0 size=    9951kB time=00:04:22.46 bitrate= 310.6kbits/s dup=1 drop=0 speed=6.41x    frame= 6341 fps=153 q=32.0 size=   10040kB time=00:04:24.64 bitrate= 310.8kbits/s dup=1 drop=0 speed=6.38x    frame= 6410 fps=153 q=32.0 size=   10145kB time=00:04:27.49 bitrate= 310.7kbits/s dup=1 drop=0 speed=6.37x    frame= 6479 fps=153 q=32.0 size=   10240kB time=00:04:30.40 bitrate= 310.2kbits/s dup=1 drop=0 speed=6.36x    frame= 6545 fps=152 q=32.0 size=   10320kB time=00:04:33.13 bitrate= 309.5kbits/s dup=1 drop=0 speed=6.35x    frame= 6618 fps=152 q=32.0 size=   10430kB time=00:04:36.20 bitrate= 309.3kbits/s dup=1 drop=0 speed=6.35x    frame= 6702 fps=152 q=32.0 size=   10542kB time=00:04:39.70 bitrate= 308.7kbits/s dup=1 drop=0 speed=6.35x    frame= 6783 fps=152 q=32.0 size=   10647kB time=00:04:43.03 bitrate= 308.2kbits/s dup=1 drop=0 speed=6.36x    frame= 6839 fps=152 q=32.0 size=   10735kB time=00:04:45.41 bitrate= 308.1kbits/s dup=1 drop=0 speed=6.34x    frame= 6902 fps=152 q=32.0 size=   10822kB time=00:04:48.06 bitrate= 307.8kbits/s dup=1 drop=0 speed=6.33x    frame= 6986 fps=152 q=32.0 size=   10947kB time=00:04:51.52 bitrate= 307.6kbits/s dup=1 drop=0 speed=6.33x    frame= 7051 fps=152 q=32.0 size=   11066kB time=00:04:54.25 bitrate= 308.1kbits/s dup=1 drop=0 speed=6.32x    frame= 7116 fps=151 q=32.0 size=   11142kB time=00:04:56.93 bitrate= 307.4kbits/s dup=1 drop=0 speed=6.31x    frame= 7201 fps=151 q=29.0 size=   11238kB time=00:05:00.52 bitrate= 306.4kbits/s dup=1 drop=0 speed=6.32x    frame= 7297 fps=152 q=32.0 size=   11376kB time=00:05:04.49 bitrate= 306.1kbits/s dup=1 drop=0 speed=6.34x    frame= 7398 fps=152 q=32.0 size=   11467kB time=00:05:08.71 bitrate= 304.3kbits/s dup=1 drop=0 speed=6.36x    frame= 7490 fps=153 q=32.0 size=   11546kB time=00:05:12.55 bitrate= 302.6kbits/s dup=1 drop=0 speed=6.37x    frame= 7576 fps=153 q=32.0 size=   11651kB time=00:05:16.13 bitrate= 301.9kbits/s dup=1 drop=0 speed=6.38x    frame= 7647 fps=153 q=32.0 size=   11754kB time=00:05:19.08 bitrate= 301.8kbits/s dup=1 drop=0 speed=6.38x    frame= 7704 fps=152 q=32.0 size=   11873kB time=00:05:21.51 bitrate= 302.5kbits/s dup=1 drop=0 speed=6.36x    frame= 7795 fps=153 q=32.0 size=   11956kB time=00:05:25.27 bitrate= 301.1kbits/s dup=1 drop=0 speed=6.37x    frame= 7885 fps=153 q=32.0 size=   12048kB time=00:05:29.02 bitrate= 300.0kbits/s dup=1 drop=0 speed=6.38x    frame= 7966 fps=153 q=32.0 size=   12165kB time=00:05:32.39 bitrate= 299.8kbits/s dup=1 drop=0 speed=6.39x    frame= 8073 fps=154 q=32.0 size=   12258kB time=00:05:36.83 bitrate= 298.1kbits/s dup=1 drop=0 speed=6.41x    frame= 8182 fps=154 q=32.0 size=   12361kB time=00:05:41.44 bitrate= 296.6kbits/s dup=1 drop=0 speed=6.43x    frame= 8251 fps=154 q=32.0 size=   12491kB time=00:05:44.29 bitrate= 297.2kbits/s dup=1 drop=0 speed=6.43x    frame= 8338 fps=154 q=32.0 size=   12607kB time=00:05:47.92 bitrate= 296.8kbits/s dup=1 drop=0 speed=6.43x    frame= 8444 fps=155 q=32.0 size=   12709kB time=00:05:52.36 bitrate= 295.5kbits/s dup=1 drop=0 speed=6.45x    frame= 8505 fps=154 q=32.0 size=   12770kB time=00:05:54.88 bitrate= 294.8kbits/s dup=1 drop=0 speed=6.44x    frame= 8539 fps=154 q=32.0 size=   12843kB time=00:05:56.28 bitrate= 295.3kbits/s dup=1 drop=0 speed=6.41x    frame= 8581 fps=153 q=32.0 size=   12938kB time=00:05:58.03 bitrate= 296.0kbits/s dup=1 drop=0 speed=6.38x    frame= 8640 fps=153 q=32.0 size=   13040kB time=00:06:00.51 bitrate= 296.3kbits/s dup=1 drop=0 speed=6.37x    frame= 8725 fps=153 q=32.0 size=   13152kB time=00:06:04.05 bitrate= 295.9kbits/s dup=1 drop=0 speed=6.37x    frame= 8818 fps=153 q=32.0 size=   13236kB time=00:06:07.93 bitrate= 294.7kbits/s dup=1 drop=0 speed=6.39x    frame= 8882 fps=153 q=32.0 size=   13328kB time=00:06:10.62 bitrate= 294.6kbits/s dup=1 drop=0 speed=6.38x    frame= 8942 fps=153 q=32.0 size=   13437kB time=00:06:13.09 bitrate= 295.0kbits/s dup=1 drop=0 speed=6.36x    frame= 9032 fps=153 q=32.0 size=   13540kB time=00:06:16.85 bitrate= 294.3kbits/s dup=1 drop=0 speed=6.37x    frame= 9095 fps=152 q=32.0 size=   13651kB time=00:06:19.49 bitrate= 294.7kbits/s dup=1 drop=0 speed=6.36x    frame= 9175 fps=152 q=32.0 size=   13755kB time=00:06:22.82 bitrate= 294.3kbits/s dup=1 drop=0 speed=6.36x    frame= 9266 fps=153 q=32.0 size=   13891kB time=00:06:26.62 bitrate= 294.3kbits/s dup=1 drop=0 speed=6.37x    frame= 9352 fps=153 q=32.0 size=   13999kB time=00:06:30.20 bitrate= 293.9kbits/s dup=1 drop=0 speed=6.38x    frame= 9449 fps=153 q=32.0 size=   14126kB time=00:06:34.26 bitrate= 293.5kbits/s dup=1 drop=0 speed=6.39x    frame= 9542 fps=153 q=32.0 size=   14240kB time=00:06:38.14 bitrate= 293.0kbits/s dup=1 drop=0 speed= 6.4x    frame= 9609 fps=153 q=32.0 size=   14332kB time=00:06:40.96 bitrate= 292.8kbits/s dup=1 drop=0 speed=6.39x    frame= 9686 fps=153 q=32.0 size=   14485kB time=00:06:44.11 bitrate= 293.6kbits/s dup=1 drop=0 speed=6.39x    frame= 9763 fps=153 q=32.0 size=   14592kB time=00:06:47.36 bitrate= 293.4kbits/s dup=1 drop=0 speed=6.39x    frame= 9814 fps=153 q=32.0 size=   14682kB time=00:06:49.49 bitrate= 293.7kbits/s dup=1 drop=0 speed=6.37x    frame= 9873 fps=152 q=32.0 size=   14772kB time=00:06:51.92 bitrate= 293.8kbits/s dup=1 drop=0 speed=6.36x    frame= 9924 fps=152 q=32.0 size=   14838kB time=00:06:54.05 bitrate= 293.6kbits/s dup=1 drop=0 speed=6.34x    frame= 9963 fps=151 q=32.0 size=   14916kB time=00:06:55.72 bitrate= 293.9kbits/s dup=1 drop=0 speed=6.32x    frame=10022 fps=151 q=32.0 size=   15037kB time=00:06:58.15 bitrate= 294.6kbits/s dup=1 drop=0 speed=6.31x    frame=10107 fps=151 q=32.0 size=   15167kB time=00:07:01.69 bitrate= 294.6kbits/s dup=1 drop=0 speed=6.32x    frame=10222 fps=152 q=32.0 size=   15264kB time=00:07:06.51 bitrate= 293.2kbits/s dup=1 drop=0 speed=6.34x    frame=10344 fps=153 q=32.0 size=   15379kB time=00:07:11.59 bitrate= 291.9kbits/s dup=1 drop=0 speed=6.37x    frame=10453 fps=153 q=32.0 size=   15484kB time=00:07:16.11 bitrate= 290.8kbits/s dup=1 drop=0 speed=6.39x    frame=10550 fps=153 q=32.0 size=   15571kB time=00:07:20.17 bitrate= 289.8kbits/s dup=1 drop=0 speed= 6.4x    frame=10611 fps=153 q=29.0 size=   15667kB time=00:07:22.73 bitrate= 289.9kbits/s dup=1 drop=0 speed=6.39x    frame=10681 fps=153 q=32.0 size=   15785kB time=00:07:25.67 bitrate= 290.1kbits/s dup=1 drop=0 speed=6.38x    frame=10760 fps=153 q=32.0 size=   15903kB time=00:07:28.96 bitrate= 290.2kbits/s dup=1 drop=0 speed=6.38x    frame=10810 fps=152 q=32.0 size=   16045kB time=00:07:31.05 bitrate= 291.4kbits/s dup=1 drop=0 speed=6.36x    frame=10883 fps=152 q=32.0 size=   16154kB time=00:07:34.08 bitrate= 291.4kbits/s dup=1 drop=0 speed=6.36x    frame=10944 fps=152 q=32.0 size=   16285kB time=00:07:36.64 bitrate= 292.2kbits/s dup=1 drop=0 speed=6.35x    frame=11016 fps=152 q=32.0 size=   16408kB time=00:07:39.62 bitrate= 292.4kbits/s dup=1 drop=0 speed=6.35x    frame=11073 fps=152 q=32.0 size=   16526kB time=00:07:41.97 bitrate= 293.1kbits/s dup=1 drop=0 speed=6.34x    frame=11127 fps=152 q=32.0 size=   16626kB time=00:07:44.23 bitrate= 293.4kbits/s dup=1 drop=0 speed=6.32x    frame=11179 fps=151 q=32.0 size=   16738kB time=00:07:46.41 bitrate= 294.0kbits/s dup=1 drop=0 speed=6.31x    frame=11247 fps=151 q=32.0 size=   16852kB time=00:07:49.22 bitrate= 294.2kbits/s dup=1 drop=0 speed=6.31x    frame=11320 fps=151 q=32.0 size=   16959kB time=00:07:52.29 bitrate= 294.1kbits/s dup=1 drop=0 speed=6.31x    frame=11368 fps=151 q=32.0 size=   17062kB time=00:07:54.30 bitrate= 294.7kbits/s dup=1 drop=0 speed=6.28x    frame=11408 fps=150 q=32.0 size=   17167kB time=00:07:55.96 bitrate= 295.5kbits/s dup=1 drop=0 speed=6.26x    frame=11463 fps=150 q=32.0 size=   17272kB time=00:07:58.27 bitrate= 295.8kbits/s dup=1 drop=0 speed=6.25x    frame=11525 fps=150 q=32.0 size=   17388kB time=00:08:00.87 bitrate= 296.2kbits/s dup=1 drop=0 speed=6.25x    frame=11604 fps=150 q=32.0 size=   17486kB time=00:08:04.16 bitrate= 295.9kbits/s dup=1 drop=0 speed=6.25x    frame=11672 fps=150 q=32.0 size=   17583kB time=00:08:06.97 bitrate= 295.8kbits/s dup=1 drop=0 speed=6.24x    frame=11731 fps=149 q=32.0 size=   17691kB time=00:08:09.45 bitrate= 296.1kbits/s dup=1 drop=0 speed=6.24x    frame=11777 fps=149 q=32.0 size=   17772kB time=00:08:11.37 bitrate= 296.3kbits/s dup=1 drop=0 speed=6.22x    frame=11828 fps=149 q=32.0 size=   17857kB time=00:08:13.50 bitrate= 296.4kbits/s dup=1 drop=0 speed= 6.2x    frame=11920 fps=149 q=32.0 size=   18025kB time=00:08:17.34 bitrate= 296.9kbits/s dup=1 drop=0 speed=6.21x    frame=12000 fps=149 q=32.0 size=   18108kB time=00:08:20.67 bitrate= 296.3kbits/s dup=1 drop=0 speed=6.21x    frame=12077 fps=149 q=32.0 size=   18215kB time=00:08:23.87 bitrate= 296.1kbits/s dup=1 drop=0 speed=6.21x    frame=12147 fps=149 q=32.0 size=   18323kB time=00:08:26.77 bitrate= 296.2kbits/s dup=1 drop=0 speed=6.21x    frame=12226 fps=149 q=32.0 size=   18424kB time=00:08:30.10 bitrate= 295.9kbits/s dup=1 drop=0 speed=6.21x    frame=12308 fps=149 q=32.0 size=   18556kB time=00:08:33.51 bitrate= 296.0kbits/s dup=1 drop=0 speed=6.21x    frame=12407 fps=149 q=32.0 size=   18660kB time=00:08:37.61 bitrate= 295.3kbits/s dup=1 drop=0 speed=6.22x    frame=12494 fps=149 q=32.0 size=   18744kB time=00:08:41.23 bitrate= 294.6kbits/s dup=1 drop=0 speed=6.23x    frame=12568 fps=149 q=32.0 size=   18835kB time=00:08:44.35 bitrate= 294.3kbits/s dup=1 drop=0 speed=6.23x    frame=12662 fps=150 q=32.0 size=   18938kB time=00:08:48.27 bitrate= 293.7kbits/s dup=1 drop=0 speed=6.24x    frame=12766 fps=150 q=32.0 size=   19021kB time=00:08:52.58 bitrate= 292.6kbits/s dup=1 drop=0 speed=6.25x    frame=12909 fps=151 q=32.0 size=   19168kB time=00:08:58.60 bitrate= 291.5kbits/s dup=1 drop=0 speed=6.29x    frame=13059 fps=152 q=32.0 size=   19327kB time=00:09:04.83 bitrate= 290.6kbits/s dup=1 drop=0 speed=6.32x    frame=13170 fps=152 q=32.0 size=   19474kB time=00:09:09.44 bitrate= 290.4kbits/s dup=1 drop=0 speed=6.34x    frame=13282 fps=152 q=32.0 size=   19596kB time=00:09:14.13 bitrate= 289.7kbits/s dup=1 drop=0 speed=6.35x    frame=13387 fps=153 q=32.0 size=   19785kB time=00:09:18.48 bitrate= 290.2kbits/s dup=1 drop=0 speed=6.37x    frame=13511 fps=153 q=32.0 size=   19943kB time=00:09:23.69 bitrate= 289.8kbits/s dup=1 drop=0 speed=6.39x    frame=13655 fps=154 q=32.0 size=   20076kB time=00:09:29.70 bitrate= 288.7kbits/s dup=1 drop=0 speed=6.42x    frame=13754 fps=154 q=32.0 size=   20279kB time=00:09:33.84 bitrate= 289.5kbits/s dup=1 drop=0 speed=6.43x    frame=13844 fps=154 q=32.0 size=   20467kB time=00:09:37.55 bitrate= 290.3kbits/s dup=1 drop=0 speed=6.44x    frame=13915 fps=154 q=32.0 size=   20614kB time=00:09:40.54 bitrate= 290.9kbits/s dup=1 drop=0 speed=6.43x    frame=13990 fps=154 q=32.0 size=   20748kB time=00:09:43.65 bitrate= 291.2kbits/s dup=1 drop=0 speed=6.43x    frame=14120 fps=155 q=32.0 size=   20944kB time=00:09:49.03 bitrate= 291.3kbits/s dup=1 drop=0 speed=6.46x    frame=14250 fps=155 q=32.0 size=   21097kB time=00:09:54.49 bitrate= 290.7kbits/s dup=1 drop=0 speed=6.48x    frame=14365 fps=156 q=32.0 size=   21218kB time=00:09:59.31 bitrate= 290.0kbits/s dup=1 drop=0 speed= 6.5x    frame=14434 fps=156 q=32.0 size=   21349kB time=00:10:02.17 bitrate= 290.4kbits/s dup=1 drop=0 speed=6.49x    frame=14529 fps=156 q=32.0 size=   21491kB time=00:10:06.14 bitrate= 290.4kbits/s dup=1 drop=0 speed= 6.5x    frame=14615 fps=156 q=32.0 size=   21639kB time=00:10:09.72 bitrate= 290.7kbits/s dup=1 drop=0 speed= 6.5x    frame=14741 fps=156 q=32.0 size=   21773kB time=00:10:14.97 bitrate= 290.0kbits/s dup=1 drop=0 speed=6.52x    frame=14875 fps=157 q=32.0 size=   21918kB time=00:10:20.56 bitrate= 289.3kbits/s dup=1 drop=0 speed=6.55x    frame=14995 fps=157 q=32.0 size=   22050kB time=00:10:25.60 bitrate= 288.7kbits/s dup=1 drop=0 speed=6.57x    frame=15113 fps=158 q=32.0 size=   22202kB time=00:10:30.50 bitrate= 288.5kbits/s dup=1 drop=0 speed=6.58x    frame=15224 fps=158 q=32.0 size=   22343kB time=00:10:35.11 bitrate= 288.2kbits/s dup=1 drop=0 speed=6.59x    frame=15350 fps=159 q=32.0 size=   22459kB time=00:10:40.40 bitrate= 287.3kbits/s dup=1 drop=0 speed=6.61x    frame=15479 fps=159 q=32.0 size=   22603kB time=00:10:45.78 bitrate= 286.7kbits/s dup=1 drop=0 speed=6.64x    frame=15576 fps=159 q=32.0 size=   22725kB time=00:10:49.79 bitrate= 286.5kbits/s dup=1 drop=0 speed=6.64x    frame=15708 fps=160 q=32.0 size=   22847kB time=00:10:55.33 bitrate= 285.6kbits/s dup=1 drop=0 speed=6.66x    frame=15838 fps=160 q=32.0 size=   22982kB time=00:11:00.75 bitrate= 284.9kbits/s dup=1 drop=0 speed=6.69x    frame=15977 fps=161 q=32.0 size=   23093kB time=00:11:06.51 bitrate= 283.8kbits/s dup=1 drop=0 speed=6.71x    frame=16086 fps=161 q=32.0 size=   23223kB time=00:11:11.08 bitrate= 283.5kbits/s dup=1 drop=0 speed=6.72x    frame=16196 fps=161 q=32.0 size=   23343kB time=00:11:15.69 bitrate= 283.0kbits/s dup=1 drop=0 speed=6.73x    frame=16302 fps=162 q=32.0 size=   23489kB time=00:11:20.08 bitrate= 282.9kbits/s dup=1 drop=0 speed=6.74x    frame=16399 fps=162 q=32.0 size=   23609kB time=00:11:24.13 bitrate= 282.7kbits/s dup=1 drop=0 speed=6.75x    frame=16443 fps=161 q=32.0 size=   23699kB time=00:11:25.97 bitrate= 283.0kbits/s dup=1 drop=0 speed=6.73x    frame=16490 fps=161 q=29.0 size=   23856kB time=00:11:27.93 bitrate= 284.1kbits/s dup=1 drop=0 speed=6.72x    frame=16591 fps=161 q=32.0 size=   24042kB time=00:11:32.11 bitrate= 284.6kbits/s dup=1 drop=0 speed=6.73x    frame=16691 fps=161 q=32.0 size=   24213kB time=00:11:36.29 bitrate= 284.9kbits/s dup=1 drop=0 speed=6.73x    frame=16778 fps=161 q=32.0 size=   24380kB time=00:11:39.92 bitrate= 285.3kbits/s dup=1 drop=0 speed=6.74x    frame=16837 fps=161 q=32.0 size=   24538kB time=00:11:42.40 bitrate= 286.2kbits/s dup=1 drop=0 speed=6.73x    frame=16918 fps=161 q=32.0 size=   24707kB time=00:11:45.77 bitrate= 286.8kbits/s dup=1 drop=0 speed=6.73x    frame=17016 fps=161 q=32.0 size=   24802kB time=00:11:49.86 bitrate= 286.2kbits/s dup=1 drop=0 speed=6.73x    frame=17102 fps=161 q=32.0 size=   24895kB time=00:11:53.45 bitrate= 285.8kbits/s dup=1 drop=0 speed=6.74x    frame=17185 fps=161 q=32.0 size=   24959kB time=00:11:56.90 bitrate= 285.2kbits/s dup=1 drop=0 speed=6.74x    frame=17230 fps=161 q=32.0 size=   25058kB time=00:11:58.78 bitrate= 285.6kbits/s dup=1 drop=0 speed=6.72x    frame=17289 fps=161 q=32.0 size=   25160kB time=00:12:01.25 bitrate= 285.8kbits/s dup=1 drop=0 speed=6.71x    frame=17377 fps=161 q=32.0 size=   25259kB time=00:12:04.92 bitrate= 285.4kbits/s dup=1 drop=0 speed=6.71x    frame=17465 fps=161 q=32.0 size=   25355kB time=00:12:08.59 bitrate= 285.1kbits/s dup=1 drop=0 speed=6.72x    frame=17550 fps=161 q=32.0 size=   25448kB time=00:12:12.18 bitrate= 284.7kbits/s dup=1 drop=0 speed=6.72x    frame=17637 fps=161 q=32.0 size=   25531kB time=00:12:15.76 bitrate= 284.3kbits/s dup=1 drop=0 speed=6.72x    frame=17670 fps=161 q=32.0 size=   25622kB time=00:12:17.13 bitrate= 284.7kbits/s dup=1 drop=0 speed= 6.7x    frame=17700 fps=160 q=32.0 size=   25755kB time=00:12:18.41 bitrate= 285.7kbits/s dup=1 drop=0 speed=6.68x    frame=17731 fps=160 q=32.0 size=   25878kB time=00:12:19.69 bitrate= 286.6kbits/s dup=1 drop=0 speed=6.66x    frame=17777 fps=159 q=32.0 size=   26010kB time=00:12:21.61 bitrate= 287.3kbits/s dup=1 drop=0 speed=6.65x    frame=17821 fps=159 q=32.0 size=   26103kB time=00:12:23.44 bitrate= 287.6kbits/s dup=1 drop=0 speed=6.63x    frame=17872 fps=159 q=32.0 size=   26211kB time=00:12:25.57 bitrate= 288.0kbits/s dup=1 drop=0 speed=6.62x    frame=17921 fps=158 q=32.0 size=   26294kB time=00:12:27.62 bitrate= 288.1kbits/s dup=1 drop=0 speed=6.61x    frame=17955 fps=158 q=32.0 size=   26373kB time=00:12:29.03 bitrate= 288.4kbits/s dup=1 drop=0 speed=6.59x    frame=17988 fps=158 q=32.0 size=   26429kB time=00:12:30.40 bitrate= 288.5kbits/s dup=1 drop=0 speed=6.58x    frame=18021 fps=157 q=32.0 size=   26521kB time=00:12:31.76 bitrate= 289.0kbits/s dup=1 drop=0 speed=6.56x    frame=18053 fps=157 q=32.0 size=   26575kB time=00:12:33.13 bitrate= 289.1kbits/s dup=1 drop=0 speed=6.54x    frame=18083 fps=156 q=32.0 size=   26672kB time=00:12:34.36 bitrate= 289.6kbits/s dup=1 drop=0 speed=6.52x    frame=18126 fps=156 q=32.0 size=   26749kB time=00:12:36.16 bitrate= 289.8kbits/s dup=1 drop=0 speed=6.51x    frame=18172 fps=156 q=32.0 size=   26820kB time=00:12:38.08 bitrate= 289.8kbits/s dup=1 drop=0 speed= 6.5x    frame=18218 fps=155 q=32.0 size=   26906kB time=00:12:40.00 bitrate= 290.0kbits/s dup=1 drop=0 speed=6.49x    frame=18265 fps=155 q=32.0 size=   27006kB time=00:12:41.96 bitrate= 290.3kbits/s dup=1 drop=0 speed=6.47x    frame=18310 fps=155 q=32.0 size=   27080kB time=00:12:43.84 bitrate= 290.4kbits/s dup=1 drop=0 speed=6.46x    frame=18356 fps=155 q=32.0 size=   27169kB time=00:12:45.76 bitrate= 290.7kbits/s dup=1 drop=0 speed=6.45x    frame=18428 fps=154 q=32.0 size=   27248kB time=00:12:48.74 bitrate= 290.4kbits/s dup=1 drop=0 speed=6.44x    frame=18477 fps=154 q=32.0 size=   27314kB time=00:12:50.79 bitrate= 290.3kbits/s dup=1 drop=0 speed=6.43x    frame=18531 fps=154 q=32.0 size=   27377kB time=00:12:53.05 bitrate= 290.1kbits/s dup=1 drop=0 speed=6.42x    frame=18585 fps=154 q=32.0 size=   27469kB time=00:12:55.31 bitrate= 290.2kbits/s dup=1 drop=0 speed=6.41x    frame=18662 fps=154 q=32.0 size=   27525kB time=00:12:58.51 bitrate= 289.6kbits/s dup=1 drop=0 speed=6.41x    frame=18720 fps=154 q=32.0 size=   27616kB time=00:13:00.95 bitrate= 289.7kbits/s dup=1 drop=0 speed=6.41x    frame=18808 fps=154 q=32.0 size=   27707kB time=00:13:04.61 bitrate= 289.3kbits/s dup=1 drop=0 speed=6.41x    frame=18880 fps=154 q=32.0 size=   27800kB time=00:13:07.60 bitrate= 289.2kbits/s dup=1 drop=0 speed=6.41x    frame=18944 fps=154 q=32.0 size=   27888kB time=00:13:10.25 bitrate= 289.1kbits/s dup=1 drop=0 speed= 6.4x    frame=18989 fps=153 q=32.0 size=   27966kB time=00:13:12.17 bitrate= 289.2kbits/s dup=1 drop=0 speed=6.39x    frame=19051 fps=153 q=32.0 size=   28018kB time=00:13:14.73 bitrate= 288.8kbits/s dup=1 drop=0 speed=6.39x    frame=19103 fps=153 q=32.0 size=   28109kB time=00:13:16.90 bitrate= 289.0kbits/s dup=1 drop=0 speed=6.38x    frame=19167 fps=153 q=32.0 size=   28174kB time=00:13:19.59 bitrate= 288.6kbits/s dup=1 drop=0 speed=6.38x    frame=19235 fps=153 q=32.0 size=   28248kB time=00:13:22.41 bitrate= 288.4kbits/s dup=1 drop=0 speed=6.37x    frame=19306 fps=153 q=32.0 size=   28320kB time=00:13:25.39 bitrate= 288.1kbits/s dup=1 drop=0 speed=6.37x    frame=19341 fps=152 q=32.0 size=   28399kB time=00:13:26.80 bitrate= 288.4kbits/s dup=1 drop=0 speed=6.36x    frame=19375 fps=152 q=32.0 size=   28467kB time=00:13:28.25 bitrate= 288.5kbits/s dup=1 drop=0 speed=6.34x    frame=19431 fps=152 q=32.0 size=   28565kB time=00:13:30.60 bitrate= 288.7kbits/s dup=1 drop=0 speed=6.33x    frame=19486 fps=152 q=32.0 size=   28640kB time=00:13:32.86 bitrate= 288.6kbits/s dup=1 drop=0 speed=6.33x    frame=19562 fps=152 q=32.0 size=   28754kB time=00:13:36.06 bitrate= 288.6kbits/s dup=1 drop=0 speed=6.33x    frame=19670 fps=152 q=32.0 size=   28934kB time=00:13:40.54 bitrate= 288.9kbits/s dup=1 drop=0 speed=6.34x    frame=19799 fps=152 q=32.0 size=   29086kB time=00:13:45.92 bitrate= 288.5kbits/s dup=1 drop=0 speed=6.35x    frame=19919 fps=153 q=32.0 size=   29217kB time=00:13:50.95 bitrate= 288.0kbits/s dup=1 drop=0 speed=6.37x    frame=20048 fps=153 q=32.0 size=   29352kB time=00:13:56.33 bitrate= 287.5kbits/s dup=1 drop=0 speed=6.38x    frame=20163 fps=153 q=32.0 size=   29503kB time=00:14:01.11 bitrate= 287.3kbits/s dup=1 drop=0 speed= 6.4x    frame=20287 fps=154 q=32.0 size=   29706kB time=00:14:06.27 bitrate= 287.6kbits/s dup=1 drop=0 speed=6.41x    frame=20411 fps=154 q=32.0 size=   29896kB time=00:14:11.47 bitrate= 287.6kbits/s dup=1 drop=0 speed=6.42x    frame=20552 fps=154 q=32.0 size=   30050kB time=00:14:17.36 bitrate= 287.1kbits/s dup=1 drop=0 speed=6.44x    frame=20684 fps=155 q=32.0 size=   30204kB time=00:14:22.82 bitrate= 286.8kbits/s dup=1 drop=0 speed=6.46x    frame=20787 fps=155 q=32.0 size=   30347kB time=00:14:27.13 bitrate= 286.7kbits/s dup=1 drop=0 speed=6.47x    frame=20889 fps=155 q=32.0 size=   30554kB time=00:14:31.40 bitrate= 287.2kbits/s dup=1 drop=0 speed=6.48x    frame=21004 fps=156 q=32.0 size=   30693kB time=00:14:36.22 bitrate= 287.0kbits/s dup=1 drop=0 speed=6.49x    frame=21097 fps=156 q=32.0 size=   30832kB time=00:14:40.06 bitrate= 287.0kbits/s dup=1 drop=0 speed=6.49x    frame=21212 fps=156 q=32.0 size=   30960kB time=00:14:44.88 bitrate= 286.6kbits/s dup=1 drop=0 speed= 6.5x    frame=21327 fps=156 q=32.0 size=   31100kB time=00:14:49.66 bitrate= 286.4kbits/s dup=1 drop=0 speed=6.51x    frame=21462 fps=157 q=32.0 size=   31231kB time=00:14:55.33 bitrate= 285.8kbits/s dup=1 drop=0 speed=6.53x    frame=21588 fps=157 q=32.0 size=   31386kB time=00:15:00.54 bitrate= 285.5kbits/s dup=1 drop=0 speed=6.55x    frame=21668 fps=157 q=32.0 size=   31504kB time=00:15:03.87 bitrate= 285.5kbits/s dup=1 drop=0 speed=6.55x    frame=21816 fps=157 q=32.0 size=   31654kB time=00:15:10.05 bitrate= 284.9kbits/s dup=1 drop=0 speed=6.57x    frame=21937 fps=158 q=32.0 size=   31799kB time=00:15:15.09 bitrate= 284.7kbits/s dup=1 drop=0 speed=6.58x    frame=22070 fps=158 q=32.0 size=   31946kB time=00:15:20.68 bitrate= 284.2kbits/s dup=1 drop=0 speed= 6.6x    frame=22182 fps=158 q=32.0 size=   32120kB time=00:15:25.33 bitrate= 284.4kbits/s dup=1 drop=0 speed= 6.6x    frame=22302 fps=159 q=32.0 size=   32246kB time=00:15:30.32 bitrate= 283.9kbits/s dup=1 drop=0 speed=6.62x    frame=22423 fps=159 q=32.0 size=   32386kB time=00:15:35.36 bitrate= 283.6kbits/s dup=1 drop=0 speed=6.63x    frame=22558 fps=159 q=32.0 size=   32524kB time=00:15:41.03 bitrate= 283.1kbits/s dup=1 drop=0 speed=6.64x    frame=22680 fps=160 q=32.0 size=   32636kB time=00:15:46.07 bitrate= 282.6kbits/s dup=1 drop=0 speed=6.66x    frame=22777 fps=160 q=32.0 size=   32752kB time=00:15:50.16 bitrate= 282.4kbits/s dup=1 drop=0 speed=6.66x    frame=22859 fps=160 q=32.0 size=   32863kB time=00:15:53.57 bitrate= 282.3kbits/s dup=1 drop=0 speed=6.66x    frame=22959 fps=160 q=32.0 size=   32999kB time=00:15:57.76 bitrate= 282.2kbits/s dup=1 drop=0 speed=6.67x    frame=23061 fps=160 q=32.0 size=   33117kB time=00:16:01.98 bitrate= 282.0kbits/s dup=1 drop=0 speed=6.67x    frame=23173 fps=160 q=32.0 size=   33291kB time=00:16:06.67 bitrate= 282.1kbits/s dup=1 drop=0 speed=6.68x    frame=23291 fps=160 q=32.0 size=   33420kB time=00:16:11.58 bitrate= 281.8kbits/s dup=1 drop=0 speed=6.69x    frame=23416 fps=161 q=32.0 size=   33552kB time=00:16:16.79 bitrate= 281.4kbits/s dup=1 drop=0 speed=6.71x    frame=23512 fps=161 q=32.0 size=   33677kB time=00:16:20.80 bitrate= 281.3kbits/s dup=1 drop=0 speed=6.71x    frame=23575 fps=161 q=32.0 size=   33814kB time=00:16:23.40 bitrate= 281.7kbits/s dup=1 drop=0 speed=6.71x    frame=23669 fps=161 q=32.0 size=   33953kB time=00:16:27.37 bitrate= 281.7kbits/s dup=1 drop=0 speed=6.71x    frame=23758 fps=161 q=32.0 size=   34030kB time=00:16:31.04 bitrate= 281.3kbits/s dup=1 drop=0 speed=6.71x    frame=23884 fps=161 q=32.0 size=   34169kB time=00:16:36.33 bitrate= 280.9kbits/s dup=1 drop=0 speed=6.72x    frame=23973 fps=161 q=32.0 size=   34285kB time=00:16:40.04 bitrate= 280.9kbits/s dup=1 drop=0 speed=6.73x    frame=24088 fps=161 q=32.0 size=   34388kB time=00:16:44.82 bitrate= 280.4kbits/s dup=1 drop=0 speed=6.73x    frame=24147 fps=161 q=32.0 size=   34458kB time=00:16:47.29 bitrate= 280.2kbits/s dup=1 drop=0 speed=6.73x    frame=24181 fps=161 q=32.0 size=   34572kB time=00:16:48.70 bitrate= 280.8kbits/s dup=1 drop=0 speed=6.72x    frame=24236 fps=161 q=32.0 size=   34673kB time=00:16:51.00 bitrate= 280.9kbits/s dup=1 drop=0 speed=6.71x    frame=24321 fps=161 q=32.0 size=   34754kB time=00:16:54.55 bitrate= 280.6kbits/s dup=1 drop=0 speed=6.71x    frame=24415 fps=161 q=32.0 size=   34838kB time=00:16:58.47 bitrate= 280.2kbits/s dup=1 drop=0 speed=6.71x    frame=24483 fps=161 q=32.0 size=   34966kB time=00:17:01.29 bitrate= 280.5kbits/s dup=1 drop=0 speed=6.71x    frame=24560 fps=161 q=32.0 size=   35038kB time=00:17:04.49 bitrate= 280.2kbits/s dup=1 drop=0 speed= 6.7x    frame=24598 fps=160 q=32.0 size=   35162kB time=00:17:06.11 bitrate= 280.7kbits/s dup=1 drop=0 speed=6.69x    frame=24645 fps=160 q=32.0 size=   35240kB time=00:17:08.07 bitrate= 280.8kbits/s dup=1 drop=0 speed=6.68x    frame=24701 fps=160 q=32.0 size=   35342kB time=00:17:10.37 bitrate= 281.0kbits/s dup=1 drop=0 speed=6.67x    frame=24789 fps=160 q=32.0 size=   35445kB time=00:17:14.04 bitrate= 280.8kbits/s dup=1 drop=0 speed=6.68x    frame=24873 fps=160 q=32.0 size=   35542kB time=00:17:17.54 bitrate= 280.6kbits/s dup=1 drop=0 speed=6.68x    frame=24949 fps=160 q=32.0 size=   35644kB time=00:17:20.74 bitrate= 280.6kbits/s dup=1 drop=0 speed=6.68x    frame=25055 fps=160 q=32.0 size=   35716kB time=00:17:25.14 bitrate= 279.9kbits/s dup=1 drop=0 speed=6.68x    frame=25136 fps=160 q=32.0 size=   35815kB time=00:17:28.51 bitrate= 279.8kbits/s dup=1 drop=0 speed=6.68x    frame=25225 fps=160 q=32.0 size=   35881kB time=00:17:32.26 bitrate= 279.3kbits/s dup=1 drop=0 speed=6.69x    frame=25301 fps=160 q=32.0 size=   35967kB time=00:17:35.42 bitrate= 279.2kbits/s dup=1 drop=0 speed=6.68x    frame=25366 fps=160 q=32.0 size=   36052kB time=00:17:38.15 bitrate= 279.1kbits/s dup=1 drop=0 speed=6.68x    frame=25401 fps=160 q=32.0 size=   36155kB time=00:17:39.60 bitrate= 279.5kbits/s dup=1 drop=0 speed=6.67x    frame=25465 fps=160 q=32.0 size=   36237kB time=00:17:42.25 bitrate= 279.5kbits/s dup=1 drop=0 speed=6.66x    frame=25531 fps=160 q=32.0 size=   36329kB time=00:17:45.02 bitrate= 279.4kbits/s dup=1 drop=0 speed=6.66x    frame=25593 fps=159 q=32.0 size=   36390kB time=00:17:47.58 bitrate= 279.2kbits/s dup=1 drop=0 speed=6.65x    frame=25652 fps=159 q=32.0 size=   36509kB time=00:17:50.05 bitrate= 279.5kbits/s dup=1 drop=0 speed=6.65x    frame=25713 fps=159 q=32.0 size=   36613kB time=00:17:52.61 bitrate= 279.6kbits/s dup=1 drop=0 speed=6.64x    frame=25782 fps=159 q=32.0 size=   36722kB time=00:17:55.47 bitrate= 279.7kbits/s dup=1 drop=0 speed=6.64x    frame=25874 fps=159 q=32.0 size=   36800kB time=00:17:59.31 bitrate= 279.3kbits/s dup=1 drop=0 speed=6.64x    frame=25958 fps=159 q=32.0 size=   36883kB time=00:18:02.81 bitrate= 279.0kbits/s dup=1 drop=0 speed=6.64x    frame=26014 fps=159 q=32.0 size=   36935kB time=00:18:05.16 bitrate= 278.8kbits/s dup=1 drop=0 speed=6.64x    frame=26066 fps=159 q=32.0 size=   36989kB time=00:18:07.33 bitrate= 278.7kbits/s dup=1 drop=0 speed=6.63x    frame=26172 fps=159 q=32.0 size=   37101kB time=00:18:11.73 bitrate= 278.4kbits/s dup=1 drop=0 speed=6.64x    frame=26279 fps=159 q=32.0 size=   37201kB time=00:18:16.21 bitrate= 278.0kbits/s dup=1 drop=0 speed=6.64x    frame=26375 fps=159 q=32.0 size=   37297kB time=00:18:20.22 bitrate= 277.7kbits/s dup=1 drop=0 speed=6.65x    frame=26485 fps=160 q=32.0 size=   37373kB time=00:18:24.83 bitrate= 277.1kbits/s dup=1 drop=0 speed=6.65x    frame=26600 fps=160 q=32.0 size=   37471kB time=00:18:29.56 bitrate= 276.7kbits/s dup=1 drop=0 speed=6.66x    frame=26676 fps=160 q=32.0 size=   37583kB time=00:18:32.76 bitrate= 276.7kbits/s dup=1 drop=0 speed=6.66x    frame=26730 fps=160 q=32.0 size=   37681kB time=00:18:35.03 bitrate= 276.8kbits/s dup=1 drop=0 speed=6.66x    frame=26782 fps=159 q=32.0 size=   37749kB time=00:18:37.20 bitrate= 276.8kbits/s dup=1 drop=0 speed=6.65x    frame=26836 fps=159 q=32.0 size=   37817kB time=00:18:39.46 bitrate= 276.7kbits/s dup=1 drop=0 speed=6.64x    frame=26891 fps=159 q=32.0 size=   37889kB time=00:18:41.72 bitrate= 276.7kbits/s dup=1 drop=0 speed=6.64x    frame=26949 fps=159 q=32.0 size=   37980kB time=00:18:44.16 bitrate= 276.8kbits/s dup=1 drop=0 speed=6.63x    frame=27007 fps=159 q=32.0 size=   38046kB time=00:18:46.59 bitrate= 276.7kbits/s dup=1 drop=0 speed=6.62x    frame=27081 fps=159 q=32.0 size=   38143kB time=00:18:49.66 bitrate= 276.6kbits/s dup=1 drop=0 speed=6.62x    frame=27176 fps=159 q=32.0 size=   38225kB time=00:18:53.63 bitrate= 276.2kbits/s dup=1 drop=0 speed=6.63x    frame=27277 fps=159 q=32.0 size=   38318kB time=00:18:57.85 bitrate= 275.9kbits/s dup=1 drop=0 speed=6.63x    frame=27350 fps=159 q=32.0 size=   38388kB time=00:19:00.88 bitrate= 275.6kbits/s dup=1 drop=0 speed=6.63x    frame=27414 fps=159 q=32.0 size=   38467kB time=00:19:03.53 bitrate= 275.6kbits/s dup=1 drop=0 speed=6.63x    frame=27512 fps=159 q=32.0 size=   38548kB time=00:19:07.62 bitrate= 275.2kbits/s dup=1 drop=0 speed=6.63x    frame=27574 fps=159 q=32.0 size=   38639kB time=00:19:10.23 bitrate= 275.2kbits/s dup=1 drop=0 speed=6.62x    frame=27659 fps=159 q=32.0 size=   38736kB time=00:19:13.77 bitrate= 275.0kbits/s dup=1 drop=0 speed=6.63x    frame=27743 fps=159 q=32.0 size=   38804kB time=00:19:17.27 bitrate= 274.7kbits/s dup=1 drop=0 speed=6.63x    frame=27792 fps=159 q=32.0 size=   38879kB time=00:19:19.31 bitrate= 274.7kbits/s dup=1 drop=0 speed=6.62x    frame=27845 fps=159 q=32.0 size=   38966kB time=00:19:21.53 bitrate= 274.8kbits/s dup=1 drop=0 speed=6.61x    frame=27907 fps=158 q=32.0 size=   39090kB time=00:19:24.13 bitrate= 275.1kbits/s dup=1 drop=0 speed=6.61x    frame=27979 fps=158 q=32.0 size=   39200kB time=00:19:27.12 bitrate= 275.1kbits/s dup=1 drop=0 speed=6.61x    frame=28055 fps=158 q=32.0 size=   39290kB time=00:19:30.28 bitrate= 275.0kbits/s dup=1 drop=0 speed= 6.6x    frame=28145 fps=158 q=32.0 size=   39363kB time=00:19:34.03 bitrate= 274.7kbits/s dup=1 drop=0 speed=6.61x    frame=28229 fps=158 q=32.0 size=   39479kB time=00:19:37.53 bitrate= 274.7kbits/s dup=1 drop=0 speed=6.61x    frame=28325 fps=159 q=32.0 size=   39559kB time=00:19:41.54 bitrate= 274.3kbits/s dup=1 drop=0 speed=6.61x    frame=28407 fps=159 q=32.0 size=   39660kB time=00:19:44.96 bitrate= 274.2kbits/s dup=1 drop=0 speed=6.61x    frame=28490 fps=159 q=32.0 size=   39750kB time=00:19:48.41 bitrate= 274.0kbits/s dup=1 drop=0 speed=6.61x    frame=28549 fps=158 q=32.0 size=   39807kB time=00:19:50.89 bitrate= 273.8kbits/s dup=1 drop=0 speed=6.61x    frame=28613 fps=158 q=32.0 size=   39862kB time=00:19:53.57 bitrate= 273.6kbits/s dup=1 drop=0 speed=6.61x    frame=28696 fps=158 q=32.0 size=   39957kB time=00:19:57.03 bitrate= 273.5kbits/s dup=1 drop=0 speed=6.61x    frame=28778 fps=158 q=32.0 size=   40062kB time=00:20:00.44 bitrate= 273.4kbits/s dup=1 drop=0 speed=6.61x    frame=28857 fps=158 q=32.0 size=   40151kB time=00:20:03.73 bitrate= 273.2kbits/s dup=1 drop=0 speed=6.61x    frame=28986 fps=159 q=32.0 size=   40276kB time=00:20:09.11 bitrate= 272.9kbits/s dup=1 drop=0 speed=6.62x    frame=29103 fps=159 q=32.0 size=   40374kB time=00:20:13.97 bitrate= 272.5kbits/s dup=1 drop=0 speed=6.63x    frame=29213 fps=159 q=32.0 size=   40471kB time=00:20:18.58 bitrate= 272.1kbits/s dup=1 drop=0 speed=6.63x    frame=29341 fps=159 q=32.0 size=   40580kB time=00:20:23.91 bitrate= 271.6kbits/s dup=1 drop=0 speed=6.64x    frame=29440 fps=159 q=32.0 size=   40692kB time=00:20:28.05 bitrate= 271.4kbits/s dup=1 drop=0 speed=6.65x    frame=29521 fps=159 q=32.0 size=   40796kB time=00:20:31.42 bitrate= 271.4kbits/s dup=1 drop=0 speed=6.65x    frame=29603 fps=159 q=32.0 size=   40888kB time=00:20:34.83 bitrate= 271.3kbits/s dup=1 drop=0 speed=6.65x    frame=29675 fps=159 q=32.0 size=   40972kB time=00:20:37.86 bitrate= 271.1kbits/s dup=1 drop=0 speed=6.65x    frame=29742 fps=159 q=32.0 size=   41059kB time=00:20:40.64 bitrate= 271.1kbits/s dup=1 drop=0 speed=6.64x    frame=29820 fps=159 q=32.0 size=   41156kB time=00:20:43.88 bitrate= 271.0kbits/s dup=1 drop=0 speed=6.64x    frame=29910 fps=159 q=32.0 size=   41245kB time=00:20:47.68 bitrate= 270.8kbits/s dup=1 drop=0 speed=6.64x    frame=30004 fps=159 q=32.0 size=   41345kB time=00:20:51.56 bitrate= 270.6kbits/s dup=1 drop=0 speed=6.65x    frame=30113 fps=159 q=32.0 size=   41451kB time=00:20:56.12 bitrate= 270.3kbits/s dup=1 drop=0 speed=6.65x    frame=30215 fps=160 q=32.0 size=   41530kB time=00:21:00.39 bitrate= 269.9kbits/s dup=1 drop=0 speed=6.66x    frame=30313 fps=160 q=32.0 size=   41613kB time=00:21:04.44 bitrate= 269.6kbits/s dup=1 drop=0 speed=6.66x    frame=30358 fps=159 q=32.0 size=   41704kB time=00:21:06.32 bitrate= 269.8kbits/s dup=1 drop=0 speed=6.65x    frame=30405 fps=159 q=32.0 size=   41790kB time=00:21:08.28 bitrate= 269.9kbits/s dup=1 drop=0 speed=6.64x    frame=30456 fps=159 q=32.0 size=   41889kB time=00:21:10.42 bitrate= 270.1kbits/s dup=1 drop=0 speed=6.64x    frame=30514 fps=159 q=32.0 size=   42004kB time=00:21:12.85 bitrate= 270.3kbits/s dup=1 drop=0 speed=6.63x    frame=30573 fps=159 q=32.0 size=   42106kB time=00:21:15.32 bitrate= 270.5kbits/s dup=1 drop=0 speed=6.63x    frame=30631 fps=159 q=32.0 size=   42212kB time=00:21:17.71 bitrate= 270.6kbits/s dup=1 drop=0 speed=6.62x    frame=30681 fps=159 q=32.0 size=   42364kB time=00:21:19.80 bitrate= 271.2kbits/s dup=1 drop=0 speed=6.62x    frame=30731 fps=158 q=32.0 size=   42494kB time=00:21:21.89 bitrate= 271.6kbits/s dup=1 drop=0 speed=6.61x    frame=30787 fps=158 q=32.0 size=   42656kB time=00:21:24.24 bitrate= 272.1kbits/s dup=1 drop=0 speed= 6.6x    frame=30840 fps=158 q=32.0 size=   42780kB time=00:21:26.46 bitrate= 272.4kbits/s dup=1 drop=0 speed= 6.6x    frame=30894 fps=158 q=32.0 size=   42908kB time=00:21:28.68 bitrate= 272.8kbits/s dup=1 drop=0 speed=6.59x    frame=30938 fps=158 q=32.0 size=   43018kB time=00:21:30.51 bitrate= 273.1kbits/s dup=1 drop=0 speed=6.58x    frame=30968 fps=158 q=32.0 size=   43135kB time=00:21:31.75 bitrate= 273.6kbits/s dup=1 drop=0 speed=6.57x    frame=31004 fps=157 q=32.0 size=   43269kB time=00:21:33.29 bitrate= 274.1kbits/s dup=1 drop=0 speed=6.56x    frame=31074 fps=157 q=32.0 size=   43378kB time=00:21:36.23 bitrate= 274.1kbits/s dup=1 drop=0 speed=6.56x    frame=31130 fps=157 q=32.0 size=   43492kB time=00:21:38.53 bitrate= 274.4kbits/s dup=1 drop=0 speed=6.56x    frame=31185 fps=157 q=32.0 size=   43635kB time=00:21:40.80 bitrate= 274.8kbits/s dup=1 drop=0 speed=6.55x    frame=31257 fps=157 q=32.0 size=   43763kB time=00:21:43.83 bitrate= 275.0kbits/s dup=1 drop=0 speed=6.55x    frame=31316 fps=157 q=32.0 size=   43873kB time=00:21:46.30 bitrate= 275.1kbits/s dup=1 drop=0 speed=6.55x    frame=31363 fps=157 q=32.0 size=   43980kB time=00:21:48.26 bitrate= 275.4kbits/s dup=1 drop=0 speed=6.54x    frame=31424 fps=157 q=32.0 size=   44093kB time=00:21:50.82 bitrate= 275.6kbits/s dup=1 drop=0 speed=6.54x    frame=31494 fps=157 q=32.0 size=   44222kB time=00:21:53.68 bitrate= 275.8kbits/s dup=1 drop=0 speed=6.53x    frame=31530 fps=156 q=32.0 size=   44327kB time=00:21:55.22 bitrate= 276.1kbits/s dup=1 drop=0 speed=6.52x    frame=31592 fps=156 q=32.0 size=   44453kB time=00:21:57.82 bitrate= 276.3kbits/s dup=1 drop=0 speed=6.52x    frame=31670 fps=156 q=32.0 size=   44562kB time=00:22:01.06 bitrate= 276.3kbits/s dup=1 drop=0 speed=6.52x    frame=31718 fps=156 q=32.0 size=   44669kB time=00:22:03.07 bitrate= 276.6kbits/s dup=1 drop=0 speed=6.51x    frame=31769 fps=156 q=32.0 size=   44787kB time=00:22:05.16 bitrate= 276.9kbits/s dup=1 drop=0 speed=6.51x    frame=31820 fps=156 q=32.0 size=   44939kB time=00:22:07.33 bitrate= 277.4kbits/s dup=1 drop=0 speed= 6.5x    frame=31880 fps=156 q=32.0 size=   45030kB time=00:22:09.81 bitrate= 277.4kbits/s dup=1 drop=0 speed= 6.5x    frame=31935 fps=156 q=32.0 size=   45161kB time=00:22:12.11 bitrate= 277.7kbits/s dup=1 drop=0 speed=6.49x    frame=31982 fps=155 q=32.0 size=   45293kB time=00:22:14.08 bitrate= 278.1kbits/s dup=1 drop=0 speed=6.48x    frame=32036 fps=155 q=32.0 size=   45420kB time=00:22:16.29 bitrate= 278.4kbits/s dup=1 drop=0 speed=6.48x    frame=32096 fps=155 q=32.0 size=   45530kB time=00:22:18.85 bitrate= 278.6kbits/s dup=1 drop=0 speed=6.48x    frame=32140 fps=155 q=32.0 size=   45676kB time=00:22:20.65 bitrate= 279.1kbits/s dup=1 drop=0 speed=6.47x    frame=32200 fps=155 q=32.0 size=   45802kB time=00:22:23.16 bitrate= 279.3kbits/s dup=1 drop=0 speed=6.46x    frame=32262 fps=155 q=32.0 size=   45921kB time=00:22:25.77 bitrate= 279.5kbits/s dup=1 drop=0 speed=6.46x    frame=32354 fps=155 q=32.0 size=   46039kB time=00:22:29.61 bitrate= 279.4kbits/s dup=1 drop=0 speed=6.46x    frame=32428 fps=155 q=32.0 size=   46153kB time=00:22:32.68 bitrate= 279.5kbits/s dup=1 drop=0 speed=6.46x    frame=32508 fps=155 q=32.0 size=   46261kB time=00:22:36.01 bitrate= 279.5kbits/s dup=1 drop=0 speed=6.46x    frame=32639 fps=155 q=32.0 size=   46379kB time=00:22:41.51 bitrate= 279.1kbits/s dup=1 drop=0 speed=6.48x    frame=32767 fps=155 q=32.0 size=   46508kB time=00:22:46.80 bitrate= 278.7kbits/s dup=1 drop=0 speed=6.48x    frame=32875 fps=156 q=32.0 size=   46630kB time=00:22:51.28 bitrate= 278.6kbits/s dup=1 drop=0 speed=6.49x    frame=32986 fps=156 q=32.0 size=   46766kB time=00:22:55.93 bitrate= 278.4kbits/s dup=1 drop=0 speed= 6.5x    frame=33092 fps=156 q=32.0 size=   46883kB time=00:23:00.37 bitrate= 278.2kbits/s dup=1 drop=0 speed= 6.5x    frame=33196 fps=156 q=32.0 size=   46996kB time=00:23:04.68 bitrate= 278.0kbits/s dup=1 drop=0 speed=6.51x    frame=33274 fps=156 q=32.0 size=   47116kB time=00:23:07.96 bitrate= 278.1kbits/s dup=1 drop=0 speed=6.51x    frame=33352 fps=156 q=32.0 size=   47231kB time=00:23:11.21 bitrate= 278.1kbits/s dup=1 drop=0 speed=6.51x    frame=33420 fps=156 q=32.0 size=   47340kB time=00:23:14.07 bitrate= 278.2kbits/s dup=1 drop=0 speed=6.51x    frame=33473 fps=156 q=32.0 size=   47402kB time=00:23:16.28 bitrate= 278.1kbits/s dup=1 drop=0 speed= 6.5x    frame=33551 fps=156 q=32.0 size=   47516kB time=00:23:19.53 bitrate= 278.1kbits/s dup=1 drop=0 speed= 6.5x    frame=33620 fps=156 q=32.0 size=   47655kB time=00:23:22.39 bitrate= 278.4kbits/s dup=1 drop=0 speed= 6.5x    frame=33706 fps=156 q=32.0 size=   47749kB time=00:23:25.97 bitrate= 278.2kbits/s dup=1 drop=0 speed= 6.5x    frame=33785 fps=156 q=32.0 size=   47850kB time=00:23:29.25 bitrate= 278.2kbits/s dup=1 drop=0 speed= 6.5x    frame=33880 fps=156 q=32.0 size=   47989kB time=00:23:33.22 bitrate= 278.2kbits/s dup=1 drop=0 speed= 6.5x    frame=33975 fps=156 q=32.0 size=   48078kB time=00:23:37.19 bitrate= 277.9kbits/s dup=1 drop=0 speed=6.51x    frame=34047 fps=156 q=32.0 size=   48178kB time=00:23:40.18 bitrate= 277.9kbits/s dup=1 drop=0 speed= 6.5x    frame=34113 fps=156 q=32.0 size=   48277kB time=00:23:42.95 bitrate= 277.9kbits/s dup=1 drop=0 speed= 6.5x    frame=34206 fps=156 q=32.0 size=   48370kB time=00:23:46.83 bitrate= 277.7kbits/s dup=1 drop=0 speed= 6.5x    frame=34288 fps=156 q=32.0 size=   48506kB time=00:23:50.25 bitrate= 277.8kbits/s dup=1 drop=0 speed= 6.5x    frame=34383 fps=156 q=32.0 size=   48641kB time=00:23:54.21 bitrate= 277.8kbits/s dup=1 drop=0 speed=6.51x    frame=34436 fps=156 q=32.0 size=   48830kB time=00:23:56.43 bitrate= 278.5kbits/s dup=1 drop=0 speed= 6.5x    frame=34478 fps=156 q=32.0 size=   49016kB time=00:23:58.18 bitrate= 279.2kbits/s dup=1 drop=0 speed=6.49x    frame=34519 fps=156 q=32.0 size=   49188kB time=00:23:59.89 bitrate= 279.8kbits/s dup=1 drop=0 speed=6.49x    frame=34577 fps=155 q=32.0 size=   49336kB time=00:24:02.28 bitrate= 280.2kbits/s dup=1 drop=0 speed=6.48x    frame=34639 fps=155 q=32.0 size=   49463kB time=00:24:04.88 bitrate= 280.4kbits/s dup=1 drop=0 speed=6.48x    frame=34704 fps=155 q=32.0 size=   49600kB time=00:24:07.61 bitrate= 280.7kbits/s dup=1 drop=0 speed=6.48x    frame=34771 fps=155 q=32.0 size=   49721kB time=00:24:10.39 bitrate= 280.8kbits/s dup=1 drop=0 speed=6.48x    frame=34920 fps=156 q=32.0 size=   49833kB time=00:24:16.61 bitrate= 280.3kbits/s dup=1 drop=0 speed=6.49x    frame=35152 fps=156 q=32.0 size=   49982kB time=00:24:26.30 bitrate= 279.2kbits/s dup=1 drop=0 speed=6.52x    [mp4 @ 0x41ebf20] Starting second pass: moving the moov atom to the beginning of the file
frame=35190 fps=156 q=-1.0 Lsize=   50852kB time=00:24:27.71 bitrate= 283.8kbits/s dup=1 drop=0 speed=6.52x    
video:40613kB audio:9405kB subtitle:0kB other streams:0kB global headers:0kB muxing overhead: 1.666779%
[libx264 @ 0x4275d80] frame I:328   Avg QP:21.25  size: 15246
[libx264 @ 0x4275d80] frame P:11794 Avg QP:24.66  size:  2468
[libx264 @ 0x4275d80] frame B:23068 Avg QP:28.74  size:   324
[libx264 @ 0x4275d80] consecutive B-frames:  3.7% 10.2% 49.2% 36.8%
[libx264 @ 0x4275d80] mb I  I16..4: 31.2% 47.0% 21.8%
[libx264 @ 0x4275d80] mb P  I16..4:  5.1%  4.0%  1.1%  P16..4: 31.3%  4.4%  3.4%  0.1%  0.0%    skip:50.4%
[libx264 @ 0x4275d80] mb B  I16..4:  0.3%  0.2%  0.1%  B16..8: 13.6%  0.7%  0.1%  direct: 0.3%  skip:84.8%  L0:38.5% L1:59.9% BI: 1.6%
[libx264 @ 0x4275d80] 8x8 transform intra:41.1% inter:53.4%
[libx264 @ 0x4275d80] coded y,uvDC,uvAC intra: 25.1% 52.8% 8.1% inter: 1.7% 4.5% 0.0%
[libx264 @ 0x4275d80] i16 v,h,dc,p: 43% 29% 17% 11%
[libx264 @ 0x4275d80] i8 v,h,dc,ddl,ddr,vr,hd,vl,hu: 20% 17% 45%  3%  3%  3%  3%  3%  3%
[libx264 @ 0x4275d80] i4 v,h,dc,ddl,ddr,vr,hd,vl,hu: 30% 17% 22%  6%  5%  6%  5%  6%  4%
[libx264 @ 0x4275d80] i8c dc,h,v,p: 46% 24% 23%  7%
[libx264 @ 0x4275d80] Weighted P-Frames: Y:1.0% UV:0.7%
[libx264 @ 0x4275d80] ref P L0: 65.2%  7.8% 12.2%  4.0%  3.1%  2.7%  2.5%  1.6%  0.8%  0.0%
[libx264 @ 0x4275d80] ref B L0: 80.2%  8.9%  4.9%  2.1%  1.6%  1.3%  1.0%
[libx264 @ 0x4275d80] ref B L1: 90.4%  9.6%
[libx264 @ 0x4275d80] kb/s:226.68
